<mxfile host="app.diagrams.net" modified="2023-05-23T02:12:59.512Z" agent="Mozilla/5.0 (Windows NT 10.0; Win64; x64) AppleWebKit/537.36 (KHTML, like Gecko) Chrome/113.0.0.0 Safari/537.36 Edg/113.0.1774.50" version="21.3.2" etag="LpcahlSGLUbkUdDoGUjB" type="github">
  <diagram name="第 1 页" id="7vxwXNG6sfwBgpgp_Jt6">
    <mxGraphModel>
      <root>
        <mxCell id="0" />
        <mxCell id="1" parent="0" />
      </root>
    </mxGraphModel>
  </diagram>
</mxfile>
